<svg viewBox="0 0 400 800" xmlns="http://www.w3.org/2000/svg">
  <!-- Phone background -->
  <rect width="400" height="800" fill="#ffffff" stroke="#333" stroke-width="2"/>
  
  <!-- Status bar -->
  <rect width="400" height="40" fill="#f5f5f5"/>
  <text x="20" y="28" font-size="12" fill="#333">9:41</text>
  
  <!-- Header -->
  <rect y="40" width="400" height="60" fill="#6200EE"/>
  <text x="200" y="80" text-anchor="middle" font-size="24" font-weight="bold" fill="#fff">Usuários</text>
  
  <!-- User item 1 -->
  <rect x="20" y="120" width="360" height="80" rx="8" fill="none" stroke="#ddd" stroke-width="2"/>
  <circle cx="50" cy="150" r="20" fill="#6200EE" opacity="0.3"/>
  <text x="80" y="145" font-size="14" font-weight="bold" fill="#333">João Silva</text>
  <text x="80" y="165" font-size="12" fill="#999">joao@email.com</text>
  <text x="350" y="155" text-anchor="end" font-size="20" fill="#ddd">›</text>
  
  <!-- User item 2 -->
  <rect x="20" y="220" width="360" height="80" rx="8" fill="none" stroke="#ddd" stroke-width="2"/>
  <circle cx="50" cy="250" r="20" fill="#6200EE" opacity="0.3"/>
  <text x="80" y="245" font-size="14" font-weight="bold" fill="#333">Maria Santos</text>
  <text x="80" y="265" font-size="12" fill="#999">maria@email.com</text>
  <text x="350" y="255" text-anchor="end" font-size="20" fill="#ddd">›</text>
  
  <!-- User item 3 -->
  <rect x="20" y="320" width="360" height="80" rx="8" fill="none" stroke="#ddd" stroke-width="2"/>
  <circle cx="50" cy="350" r="20" fill="#6200EE" opacity="0.3"/>
  <text x="80" y="345" font-size="14" font-weight="bold" fill="#333">Pedro Costa</text>
  <text x="80" y="365" font-size="12" fill="#999">pedro@email.com</text>
  <text x="350" y="355" text-anchor="end" font-size="20" fill="#ddd">›</text>
  
  <!-- User item 4 -->
  <rect x="20" y="420" width="360" height="80" rx="8" fill="none" stroke="#ddd" stroke-width="2"/>
  <circle cx="50" cy="450" r="20" fill="#6200EE" opacity="0.3"/>
  <text x="80" y="445" font-size="14" font-weight="bold" fill="#333">Ana Oliveira</text>
  <text x="80" y="465" font-size="12" fill="#999">ana@email.com</text>
  <text x="350" y="455" text-anchor="end" font-size="20" fill="#ddd">›</text>
  
  <!-- Add button -->
  <circle cx="360" cy="720" r="30" fill="#6200EE"/>
  <text x="360" y="730" text-anchor="middle" font-size="28" fill="#fff">+</text>
</svg>